<svg id='logo' width="241" height="33" viewBox="0 0 241 33" fill="none" xmlns="http://www.w3.org/2000/svg">
<path d="M13.3613 19.3086C13.3613 20.75 13.4199 21.998 13.5371 23.0527C13.6543 24.0957 13.8066 24.9863 13.9941 25.7246C14.1934 26.4512 14.4219 27.043 14.6797 27.5C14.9492 27.9453 15.2246 28.2969 15.5059 28.5547C15.7871 28.8008 16.0684 28.9707 16.3496 29.0645C16.6426 29.1465 16.918 29.1875 17.1758 29.1875C17.4688 29.1875 17.7324 29.1523 17.9668 29.082C18.2012 29 18.4121 28.9121 18.5996 28.8184C18.7871 28.7129 18.9395 28.625 19.0566 28.5547C19.1855 28.4727 19.2852 28.4316 19.3555 28.4316C19.4492 28.4316 19.5312 28.4844 19.6016 28.5898L20.3574 29.7852C20.3926 29.8555 20.4102 29.9141 20.4102 29.9609C20.4102 30.0195 20.3867 30.0723 20.3398 30.1191C20.293 30.1543 20.252 30.1895 20.2168 30.2246C19.8535 30.5059 19.3906 30.793 18.8281 31.0859C18.2656 31.3789 17.6211 31.6426 16.8945 31.877C16.1797 32.1113 15.3887 32.3047 14.5215 32.457C13.6543 32.6094 12.7402 32.6855 11.7793 32.6855C10.9004 32.6855 9.99805 32.5977 9.07227 32.4219C8.1582 32.2578 7.26758 31.9766 6.40039 31.5781C5.5332 31.168 4.71289 30.6289 3.93945 29.9609C3.17773 29.293 2.50977 28.4668 1.93555 27.4824C1.36133 26.4863 0.904297 25.3203 0.564453 23.9844C0.236328 22.6367 0.0722656 21.0781 0.0722656 19.3086C0.0722656 17.5391 0.236328 15.9863 0.564453 14.6504C0.904297 13.3027 1.36133 12.1367 1.93555 11.1523C2.50977 10.1562 3.17773 9.32422 3.93945 8.65625C4.71289 7.98828 5.5332 7.45508 6.40039 7.05664C7.26758 6.64648 8.1582 6.35937 9.07227 6.19531C9.99805 6.01953 10.9004 5.93164 11.7793 5.93164C12.7402 5.93164 13.6543 6.00781 14.5215 6.16016C15.3887 6.3125 16.1797 6.50586 16.8945 6.74023C17.6211 6.97461 18.2656 7.23828 18.8281 7.53125C19.3906 7.82422 19.8535 8.11133 20.2168 8.39258C20.252 8.42773 20.293 8.46875 20.3398 8.51562C20.3867 8.55078 20.4102 8.59766 20.4102 8.65625C20.4102 8.70313 20.3926 8.76172 20.3574 8.83203L19.6016 10.0273C19.5312 10.1328 19.4492 10.1855 19.3555 10.1855C19.2852 10.1855 19.1855 10.1504 19.0566 10.0801C18.9395 9.99805 18.7871 9.91016 18.5996 9.81641C18.4121 9.71094 18.2012 9.62305 17.9668 9.55273C17.7324 9.4707 17.4688 9.42969 17.1758 9.42969C16.918 9.42969 16.6426 9.47656 16.3496 9.57031C16.0684 9.65234 15.7871 9.82227 15.5059 10.0801C15.2246 10.3262 14.9492 10.6777 14.6797 11.1348C14.4219 11.5801 14.1934 12.1719 13.9941 12.9102C13.8066 13.6367 13.6543 14.5273 13.5371 15.582C13.4199 16.625 13.3613 17.8672 13.3613 19.3086ZM22.5547 9.21875C22.5547 8.80859 22.5898 8.45117 22.6602 8.14648C22.7305 7.8418 22.8652 7.58984 23.0645 7.39062C23.2637 7.17969 23.5391 7.02148 23.8906 6.91602C24.2422 6.81055 24.6992 6.75781 25.2617 6.75781H33.1016C33.7812 6.75781 34.2969 6.85742 34.6484 7.05664C35.0117 7.25586 35.2637 7.50781 35.4043 7.8125C35.5566 8.10547 35.6387 8.42188 35.6504 8.76172C35.6621 9.08984 35.668 9.39453 35.668 9.67578V29.1523C35.668 29.4219 35.6445 29.7207 35.5977 30.0488C35.5508 30.377 35.4336 30.6875 35.2461 30.9805C35.0586 31.2617 34.7715 31.502 34.3848 31.7012C33.998 31.9004 33.4648 32 32.7852 32H25.2617C24.6992 32 24.2422 31.9473 23.8906 31.8418C23.5391 31.7363 23.2637 31.584 23.0645 31.3848C22.8652 31.1855 22.7305 30.9336 22.6602 30.6289C22.5898 30.3242 22.5547 29.9668 22.5547 29.5566V9.21875ZM59.0996 6.75781C59.3223 6.75781 59.5215 6.82812 59.6973 6.96875C59.873 7.10938 59.9609 7.37891 59.9609 7.77734V30.6992C59.9609 31.5664 59.5508 32 58.7305 32H52.6309C52.2441 32 51.9219 31.9238 51.6641 31.7715C51.418 31.6191 51.1953 31.4434 50.9961 31.2441L41.9961 21.8398C42.1016 23.3633 42.207 24.7637 42.3125 26.041C42.3477 26.5918 42.3887 27.1367 42.4355 27.6758C42.4824 28.2148 42.5234 28.7188 42.5586 29.1875C42.5938 29.6562 42.623 30.0664 42.6465 30.418C42.6816 30.7695 42.7051 31.0215 42.7168 31.1738C42.7402 31.373 42.7051 31.5605 42.6113 31.7363C42.5293 31.9121 42.3301 32 42.0137 32H39.7988C39.5879 32 39.3887 31.9355 39.2012 31.8066C39.0254 31.666 38.9375 31.3965 38.9375 30.998V8.05859C38.9375 7.19141 39.418 6.75781 40.3789 6.75781H46.3203C46.7656 6.75781 47.1348 6.85156 47.4277 7.03906C47.7324 7.22656 48.0371 7.47266 48.3418 7.77734L56.9023 16.2676C56.7852 14.873 56.6797 13.584 56.5859 12.4004C56.5391 11.8965 56.4922 11.3926 56.4453 10.8887C56.4102 10.3848 56.375 9.91602 56.3398 9.48242C56.3047 9.03711 56.2695 8.65039 56.2344 8.32227C56.2109 7.99414 56.1934 7.74805 56.1816 7.58398C56.1582 7.39648 56.1934 7.21484 56.2871 7.03906C56.3926 6.85156 56.627 6.75781 56.9902 6.75781H59.0996ZM76.3086 15.582V29.8379C77.4453 29.6738 78.4883 29.5273 79.4375 29.3984C79.8359 29.3398 80.2344 29.2871 80.6328 29.2402C81.043 29.1816 81.418 29.1289 81.7578 29.082C82.0977 29.0352 82.3906 29 82.6367 28.9766C82.8828 28.9531 83.0527 28.9414 83.1465 28.9414C83.3457 28.9414 83.5156 28.9824 83.6562 29.0645C83.7969 29.1348 83.8672 29.2871 83.8672 29.5215V31.1387C83.8672 31.3496 83.8145 31.5488 83.709 31.7363C83.6035 31.9121 83.3516 32 82.9531 32H65.8672C65.3164 32 64.8652 31.9473 64.5137 31.8418C64.1738 31.7363 63.9043 31.584 63.7051 31.3848C63.5059 31.1855 63.3711 30.9336 63.3008 30.6289C63.2305 30.3242 63.1953 29.9668 63.1953 29.5566V9.81641C63.1953 9.14844 63.2715 8.61523 63.4238 8.2168C63.5762 7.80664 63.793 7.49609 64.0742 7.28516C64.3555 7.0625 64.6895 6.92187 65.0762 6.86328C65.4746 6.79297 65.9141 6.75781 66.3945 6.75781H82.2852C82.6836 6.75781 82.9355 6.85156 83.041 7.03906C83.1582 7.21484 83.2168 7.41406 83.2168 7.63672V8.88477C83.2168 9.11914 83.1523 9.27734 83.0234 9.35938C82.9062 9.42969 82.748 9.46484 82.5488 9.46484C82.4316 9.46484 82.25 9.45312 82.0039 9.42969C81.7695 9.40625 81.4941 9.37695 81.1777 9.3418C80.8613 9.29492 80.5215 9.24805 80.1582 9.20117C79.7949 9.1543 79.4316 9.10156 79.0684 9.04297C78.2246 8.91406 77.3047 8.76758 76.3086 8.60352V13.0684H82.8477C83.0938 13.0684 83.2168 13.1914 83.2168 13.4375V15.1953C83.2168 15.4531 83.0938 15.582 82.8477 15.582H76.3086ZM101.34 20.873L97.209 28.4844C97.0332 28.8125 96.8223 29.0879 96.5762 29.3105C96.3301 29.5215 95.9902 29.627 95.5566 29.627C95.1582 29.627 94.8242 29.5156 94.5547 29.293C94.2969 29.0703 94.0801 28.8066 93.9043 28.502L89.5449 21.0137C89.6152 22.5957 89.6797 24.0547 89.7383 25.3906C89.7617 25.9648 89.7852 26.5391 89.8086 27.1133C89.832 27.6875 89.8555 28.2207 89.8789 28.7129C89.9023 29.2051 89.9199 29.6445 89.9316 30.0312C89.9551 30.4062 89.9727 30.6816 89.9844 30.8574C89.9961 31.0332 89.9902 31.1914 89.9668 31.332C89.9551 31.4727 89.9141 31.5957 89.8438 31.7012C89.7734 31.7949 89.6738 31.8711 89.5449 31.9297C89.416 31.9766 89.2402 32 89.0176 32H87.084C86.873 32 86.6738 31.9355 86.4863 31.8066C86.3105 31.666 86.2227 31.3965 86.2227 30.998V8.63867C86.2227 8.41602 86.252 8.19336 86.3105 7.9707C86.3809 7.74805 86.4922 7.54883 86.6445 7.37305C86.8086 7.18555 87.0195 7.03906 87.2773 6.93359C87.5352 6.81641 87.8516 6.75781 88.2266 6.75781H93.8867C94.3438 6.75781 94.7363 6.83984 95.0645 7.00391C95.3926 7.15625 95.6738 7.41406 95.9082 7.77734L100.637 15.2832L103.801 9.21875C103.988 8.85547 104.17 8.52734 104.346 8.23438C104.521 7.92969 104.727 7.67188 104.961 7.46094C105.207 7.23828 105.506 7.06836 105.857 6.95117C106.221 6.82227 106.684 6.75781 107.246 6.75781H111.922C112.367 6.75781 112.748 6.81641 113.064 6.93359C113.393 7.05078 113.656 7.20898 113.855 7.4082C114.066 7.60742 114.219 7.8418 114.312 8.11133C114.406 8.38086 114.453 8.67383 114.453 8.99023V29.5566C114.453 29.9199 114.424 30.2539 114.365 30.5586C114.307 30.8516 114.184 31.1094 113.996 31.332C113.82 31.543 113.562 31.707 113.223 31.8242C112.895 31.9414 112.461 32 111.922 32H103.801C103.32 32 102.922 31.9473 102.605 31.8418C102.289 31.7363 102.037 31.584 101.85 31.3848C101.662 31.1855 101.527 30.9336 101.445 30.6289C101.375 30.3242 101.34 29.9668 101.34 29.5566V20.873ZM127.988 6.75781C128.199 6.75781 128.381 6.78711 128.533 6.8457C128.686 6.89258 128.82 6.98047 128.938 7.10938C129.066 7.23828 129.184 7.4082 129.289 7.61914C129.395 7.83008 129.506 8.08789 129.623 8.39258L137.691 29.9434C137.75 30.1074 137.791 30.2539 137.814 30.3828C137.838 30.5117 137.85 30.6406 137.85 30.7695C137.85 31.1914 137.721 31.502 137.463 31.7012C137.217 31.9004 136.953 32 136.672 32H126.705C126.4 32 126.143 31.9648 125.932 31.8945C125.732 31.8125 125.562 31.7188 125.422 31.6133C125.281 31.5078 125.17 31.3965 125.088 31.2793C125.018 31.1621 124.971 31.0566 124.947 30.9629L124.754 30.3477H119.814L119.691 30.875C119.656 31.0508 119.615 31.209 119.568 31.3496C119.521 31.4785 119.463 31.5957 119.393 31.7012C119.322 31.7949 119.223 31.8711 119.094 31.9297C118.977 31.9766 118.818 32 118.619 32H116.809C116.434 32 116.246 31.8535 116.246 31.5605C116.246 31.4551 116.264 31.332 116.299 31.1914C116.346 31.0391 116.404 30.8633 116.475 30.6641L123.822 8.42773C123.998 7.87695 124.197 7.4668 124.42 7.19727C124.643 6.92773 124.959 6.78125 125.369 6.75781H127.988ZM120.359 28.1855H124.156L122.205 21.3125L120.359 28.1855ZM159.611 29.5566C159.611 29.9668 159.576 30.3242 159.506 30.6289C159.436 30.9336 159.301 31.1855 159.102 31.3848C158.902 31.584 158.627 31.7363 158.275 31.8418C157.924 31.9473 157.467 32 156.904 32H149.223C148.367 31.9766 147.518 31.9004 146.674 31.7715C145.842 31.6309 145.045 31.4199 144.283 31.1387C143.533 30.8457 142.83 30.4707 142.174 30.0137C141.529 29.5449 140.967 28.9824 140.486 28.3262C140.018 27.6582 139.648 26.8789 139.379 25.9883C139.109 25.0859 138.975 24.0547 138.975 22.8945C138.975 21.4531 139.18 20.2168 139.59 19.1855C140 18.1426 140.557 17.2695 141.26 16.5664C141.963 15.8633 142.777 15.3066 143.703 14.8965C144.641 14.4863 145.625 14.1875 146.656 14V5.66797C146.656 5.25781 146.686 4.90039 146.744 4.5957C146.803 4.2793 146.926 4.02148 147.113 3.82227C147.301 3.61133 147.559 3.45898 147.887 3.36523C148.215 3.25977 148.654 3.20703 149.205 3.20703H156.904C157.467 3.20703 157.924 3.25977 158.275 3.36523C158.627 3.4707 158.902 3.62305 159.102 3.82227C159.301 4.02148 159.436 4.2793 159.506 4.5957C159.576 4.90039 159.611 5.25195 159.611 5.65039V29.5566ZM141.471 22.9121C141.471 23.7793 141.57 24.5938 141.77 25.3555C141.969 26.1055 142.273 26.7734 142.684 27.3594C143.105 27.9336 143.645 28.4082 144.301 28.7832C144.957 29.1582 145.742 29.3984 146.656 29.5039V16.25C145.742 16.3555 144.957 16.6016 144.301 16.9883C143.645 17.3633 143.105 17.8438 142.684 18.4297C142.273 19.0156 141.969 19.6895 141.77 20.4512C141.57 21.2129 141.471 22.0332 141.471 22.9121ZM182.814 29.5566C182.814 29.9668 182.779 30.3242 182.709 30.6289C182.639 30.9336 182.504 31.1855 182.305 31.3848C182.105 31.584 181.83 31.7363 181.479 31.8418C181.127 31.9473 180.67 32 180.107 32H172.426C171.57 31.9766 170.721 31.9004 169.877 31.7715C169.045 31.6309 168.248 31.4199 167.486 31.1387C166.736 30.8457 166.033 30.4707 165.377 30.0137C164.732 29.5449 164.17 28.9824 163.689 28.3262C163.221 27.6582 162.852 26.8789 162.582 25.9883C162.312 25.0859 162.178 24.0547 162.178 22.8945C162.178 21.4531 162.383 20.2168 162.793 19.1855C163.203 18.1426 163.76 17.2695 164.463 16.5664C165.166 15.8633 165.98 15.3066 166.906 14.8965C167.844 14.4863 168.828 14.1875 169.859 14V5.66797C169.859 5.25781 169.889 4.90039 169.947 4.5957C170.006 4.2793 170.129 4.02148 170.316 3.82227C170.504 3.61133 170.762 3.45898 171.09 3.36523C171.418 3.25977 171.857 3.20703 172.408 3.20703H180.107C180.67 3.20703 181.127 3.25977 181.479 3.36523C181.83 3.4707 182.105 3.62305 182.305 3.82227C182.504 4.02148 182.639 4.2793 182.709 4.5957C182.779 4.90039 182.814 5.25195 182.814 5.65039V29.5566ZM164.674 22.9121C164.674 23.7793 164.773 24.5938 164.973 25.3555C165.172 26.1055 165.477 26.7734 165.887 27.3594C166.309 27.9336 166.848 28.4082 167.504 28.7832C168.16 29.1582 168.945 29.3984 169.859 29.5039V16.25C168.945 16.3555 168.16 16.6016 167.504 16.9883C166.848 17.3633 166.309 17.8438 165.887 18.4297C165.477 19.0156 165.172 19.6895 164.973 20.4512C164.773 21.2129 164.674 22.0332 164.674 22.9121ZM186.066 16.4434C186.066 16.0449 186.102 15.6934 186.172 15.3887C186.242 15.0723 186.377 14.8145 186.576 14.6152C186.775 14.416 187.051 14.2637 187.402 14.1582C187.754 14.0527 188.211 14 188.773 14H196.473C197.012 14 197.445 14.0527 197.773 14.1582C198.113 14.252 198.377 14.3984 198.564 14.5977C198.752 14.7969 198.875 15.0488 198.934 15.3535C198.992 15.6582 199.021 16.0215 199.021 16.4434V29.5918C199.021 29.9902 198.992 30.3418 198.934 30.6465C198.875 30.9395 198.752 31.1914 198.564 31.4023C198.377 31.6016 198.113 31.7539 197.773 31.8594C197.445 31.9531 197.012 32 196.473 32H188.773C188.211 32 187.754 31.9473 187.402 31.8418C187.051 31.7363 186.775 31.584 186.576 31.3848C186.377 31.1855 186.242 30.9336 186.172 30.6289C186.102 30.3242 186.066 29.9668 186.066 29.5566V16.4434ZM186.717 6.47656C186.717 5.66797 186.869 4.90625 187.174 4.19141C187.49 3.47656 187.912 2.85547 188.439 2.32812C188.967 1.80078 189.588 1.38477 190.303 1.08008C191.018 0.763672 191.779 0.605469 192.588 0.605469C193.385 0.605469 194.135 0.763672 194.838 1.08008C195.553 1.38477 196.174 1.80078 196.701 2.32812C197.229 2.85547 197.645 3.47656 197.949 4.19141C198.266 4.90625 198.424 5.66797 198.424 6.47656C198.424 7.27344 198.266 8.0293 197.949 8.74414C197.645 9.44727 197.229 10.0625 196.701 10.5898C196.174 11.1172 195.553 11.5391 194.838 11.8555C194.135 12.1602 193.385 12.3125 192.588 12.3125C191.779 12.3125 191.018 12.1602 190.303 11.8555C189.588 11.5391 188.967 11.1172 188.439 10.5898C187.912 10.0625 187.49 9.44727 187.174 8.74414C186.869 8.0293 186.717 7.27344 186.717 6.47656ZM214.367 23.1055C214.367 24.2891 214.49 25.2734 214.736 26.0586C214.994 26.8438 215.316 27.4707 215.703 27.9395C216.09 28.3965 216.506 28.7188 216.951 28.9062C217.396 29.0938 217.812 29.1875 218.199 29.1875C218.492 29.1875 218.762 29.1523 219.008 29.082C219.254 29 219.471 28.9121 219.658 28.8184C219.846 28.7129 220.004 28.625 220.133 28.5547C220.262 28.4727 220.361 28.4316 220.432 28.4316C220.537 28.4316 220.607 28.4492 220.643 28.4844C220.689 28.5195 220.742 28.584 220.801 28.6777L221.416 29.627C221.475 29.7207 221.504 29.8027 221.504 29.873C221.504 29.9551 221.48 30.0195 221.434 30.0664C221.387 30.1133 221.34 30.1543 221.293 30.1895C220.906 30.459 220.432 30.7461 219.869 31.0508C219.307 31.3438 218.65 31.6133 217.9 31.8594C217.162 32.1055 216.336 32.3105 215.422 32.4746C214.508 32.6387 213.512 32.7207 212.434 32.7207C211.555 32.7207 210.676 32.6504 209.797 32.5098C208.918 32.3691 208.074 32.1406 207.266 31.8242C206.469 31.5078 205.725 31.1035 205.033 30.6113C204.342 30.1074 203.738 29.5039 203.223 28.8008C202.719 28.0859 202.32 27.2598 202.027 26.3223C201.734 25.373 201.588 24.3008 201.588 23.1055C201.588 21.9102 201.734 20.8438 202.027 19.9062C202.32 18.957 202.719 18.1309 203.223 17.4277C203.738 16.7129 204.342 16.1094 205.033 15.6172C205.725 15.1133 206.469 14.7031 207.266 14.3867C208.074 14.0703 208.918 13.8418 209.797 13.7012C210.676 13.5605 211.555 13.4902 212.434 13.4902C213.395 13.4902 214.32 13.5664 215.211 13.7188C216.102 13.8594 216.922 14.0527 217.672 14.2988C218.434 14.5332 219.113 14.7969 219.711 15.0898C220.32 15.3711 220.812 15.6523 221.188 15.9336C221.234 15.9688 221.281 16.0098 221.328 16.0566C221.375 16.1035 221.398 16.168 221.398 16.25C221.398 16.332 221.369 16.4141 221.311 16.4961L220.695 17.4453C220.637 17.5391 220.584 17.6035 220.537 17.6387C220.502 17.6738 220.432 17.6914 220.326 17.6914C220.256 17.6914 220.162 17.6562 220.045 17.5859C219.928 17.5156 219.781 17.4395 219.605 17.3574C219.43 17.2637 219.225 17.1816 218.99 17.1113C218.756 17.0293 218.492 16.9883 218.199 16.9883C217.812 16.9883 217.396 17.0879 216.951 17.2871C216.506 17.4746 216.09 17.8027 215.703 18.2715C215.316 18.7402 214.994 19.3672 214.736 20.1523C214.49 20.9375 214.367 21.9219 214.367 23.1055ZM222.225 19.7656C221.979 19.7656 221.855 19.6367 221.855 19.3789V17.9727C221.855 17.7266 221.979 17.6035 222.225 17.6035H224.053V13.6133C224.053 13.4375 224.076 13.2617 224.123 13.0859C224.182 12.9102 224.328 12.7754 224.562 12.6816L234.266 9.0957C234.711 8.93164 235.08 8.80859 235.373 8.72656C235.666 8.64453 235.924 8.60352 236.146 8.60352C236.229 8.60352 236.316 8.62109 236.41 8.65625C236.516 8.67969 236.609 8.72656 236.691 8.79688C236.785 8.86719 236.861 8.9668 236.92 9.0957C236.979 9.21289 237.008 9.35938 237.008 9.53516V17.6035H240.172C240.418 17.6035 240.541 17.7266 240.541 17.9727V19.3789C240.541 19.6367 240.418 19.7656 240.172 19.7656H237.008V26.8496C237.008 27.6816 237.143 28.2676 237.412 28.6074C237.693 28.9473 238.121 29.1172 238.695 29.1172C238.824 29.1172 238.959 29.1055 239.1 29.082C239.24 29.0469 239.369 29.0176 239.486 28.9941C239.615 28.959 239.732 28.9297 239.838 28.9062C239.943 28.8711 240.031 28.8535 240.102 28.8535C240.23 28.8535 240.295 28.9297 240.295 29.082V30.4355C240.295 30.6699 240.248 30.8281 240.154 30.9102C240.061 30.9922 239.979 31.0449 239.908 31.0684C239.463 31.2559 238.936 31.4434 238.326 31.6309C237.729 31.8184 237.078 31.9824 236.375 32.123C235.684 32.2754 234.951 32.3926 234.178 32.4746C233.404 32.5684 232.631 32.6152 231.857 32.6152C230.744 32.6152 229.707 32.5566 228.746 32.4395C227.797 32.334 226.971 32.082 226.268 31.6836C225.576 31.2852 225.031 30.6934 224.633 29.9082C224.246 29.123 224.053 28.0566 224.053 26.709V19.7656H222.225Z" fill="currentColor"/>
</svg>
